<svg width="180" height="46" viewBox="0 0 180 46" fill="none" xmlns="http://www.w3.org/2000/svg" role="img" aria-label="Conchem International">
  <rect x="0.5" y="0.5" width="179" height="45" rx="10" fill="#FFFFFF"/>
  <rect x="0.5" y="0.5" width="179" height="45" rx="10" stroke="#E5E7EB"/>
  <circle cx="24" cy="23" r="11" fill="#C8102E"/>
  <path d="M19 23.1C19 18.9 21.8 16 25.8 16C28.3 16 30.3 17.1 31.4 18.9L28.7 20.5C27.9 19.3 26.8 18.7 25.4 18.7C22.8 18.7 21.1 20.6 21.1 23.1C21.1 25.7 22.8 27.6 25.4 27.6C26.9 27.6 28 27 28.8 25.8L31.5 27.3C30.4 29.1 28.4 30.3 25.8 30.3C21.8 30.3 19 27.4 19 23.1Z" fill="#FFFFFF"/>
  <path d="M39 16H42.2L47.3 30H44.7L43.7 27.1H37.4L36.4 30H33.8L39 16ZM43.1 24.8L40.6 18.8L38.1 24.8H43.1Z" fill="#111827"/>
  <path d="M50.1 16H54.8C58.9 16 61.7 18.6 61.7 22.9C61.7 27.3 58.9 30 54.8 30H50.1V16ZM54.6 27.7C57.3 27.7 59.1 26 59.1 22.9C59.1 20 57.3 18.3 54.6 18.3H52.6V27.7H54.6Z" fill="#111827"/>
  <path d="M66.1 16H74.8V18.3H68.7V21.7H74.2V24H68.7V27.7H74.9V30H66.1V16Z" fill="#111827"/>
  <path d="M78 16H80.8L84.6 26.2L88.4 16H91.1L85.6 30H83.5L78 16Z" fill="#111827"/>
  <path d="M94 16H96.6V30H94V16Z" fill="#111827"/>
  <path d="M100 16H108.7V18.3H102.6V21.7H108.1V24H102.6V27.7H108.8V30H100V16Z" fill="#111827"/>
  <path d="M112 16H114.6V27.7H121.1V30H112V16Z" fill="#111827"/>
</svg>